<?xml version="1.0" encoding="utf-8" ?>
<svg baseProfile="full" height="200mm" version="1.1" viewBox="0,0,200,200" width="200mm" xmlns="http://www.w3.org/2000/svg" xmlns:ev="http://www.w3.org/2001/xml-events" xmlns:xlink="http://www.w3.org/1999/xlink"><defs /><rect fill="#1a1a1a" height="200" width="200" x="0" y="0" /><text alignment-baseline="middle" fill="#e1ed5e" style="dominant-baseline: central; font-size:9.0px; font-family:Arial;" text-anchor="middle" x="100.0" y="100.0">2025</text><line stroke="#e1ed5e" stroke-width="0.3" x1="100.0" x2="100.0" y1="15.0" y2="10.0" /><path d="M 100.0 14.0 a86.0,86.0 0 0,1 42.46469731375804,11.215312516191453" fill="none" id="id13" stroke="none" /><text fill="#e1ed5e" style="font-size:6.75px; font-family:Arial;" text-anchor="middle"><textPath startOffset="22.20632615414155" xlink:href="#id13">January</textPath></text><path d="M 101.44485096284872 79.0497635885617 l 1.2159985509337483 -17.63189268172002 a38.67377413048965,38.67377413048965 0 0,0 0.663733695762541,0.05151850911823768 l -1.5193224360586306 17.60834891041332" fill="#ffdb14" stroke="none" /><path d="M 101.80526077348638 79.07773832637324 l 1.3016803599012428 -15.085962928601793 a36.14201602305651,36.14201602305651 0 0,0 0.6193620677618962,0.05881589131960288 l -1.5611675547533832 15.06132149276701" fill="#ffbb11" stroke="none" /><path d="M 102.16513564639614 79.11191278185805 l 1.4861997343576947 -14.33807148596691 a35.414891036254915,35.414891036254915 0 0,0 0.6058194310379874,0.06807087188671405 l -1.7327858689054074 14.310364660609597" fill="#ffb110" stroke="none" /><path d="M 102.88285421437855 79.19881850522331 l 1.3933525410721417 -10.053709600885131 a31.149803349949302,31.149803349949302 0 0,0 0.5304826634042497,0.07817935494492645 l -1.566204184905047 10.028235761779237" fill="#ff780b" stroke="none" /><path d="M 103.2404852339499 79.25152402106235 l 2.377776223854519 -15.224643626534492 a36.40920482457499,36.40920482457499 0 0,0 0.6183857137444504,0.10203894130108979 l -2.6394911437378443 15.181458422293778" fill="#ffbe11" stroke="none" /><path d="M 103.59715602781102 79.31037775812273 l 5.4566837225440095 -31.38499526848076 a52.85582090058953,52.85582090058953 0 0,0 0.8950375138267095,0.1635623847160183 l -5.996116357473619 31.286417402414006" fill="#7dff26" stroke="none" /><path d="M 105.01212808612495 79.60689891045804 l 3.621303733758605 -14.734183135285884 a36.172672585812855,36.172672585812855 0 0,0 0.6033793180627197,0.15381482297512472 l -3.87439194050635 14.66966531614189" fill="#ffbb11" stroke="none" /><path d="M 105.36241919743992 79.69619591428918 l 3.8598780966871424 -14.614711342835127 a36.11583429902825,36.11583429902825 0 0,0 0.5996984596437073,0.1639202427611797 l -4.11087444555456 14.546104559247652" fill="#ffba11" stroke="none" /><path d="M 105.71112130821622 79.79150937346287 l 4.989594177587494 -17.655406307504 a39.34691859523193,39.34691859523193 0 0,0 0.6501793169040698,0.18980517169508257 l -5.292763712214991 17.566902806890212" fill="#ffe415" stroke="none" /><path d="M 107.08798089147638 80.2323363322302 l 5.204357626577262 -14.514428402690452 a36.41927268589995,36.41927268589995 0 0,0 0.5882886179793007,0.2166716627736531 l -5.453428570329139 14.422693472110474" fill="#ffbe11" stroke="none" /><path d="M 107.76421540070413 80.48803036053334 l 3.1026197784076737 -7.797081842114928 a29.391706306944066,29.391706306944066 0 0,0 0.4684703905359478,0.19110083489060217 l -3.236374038532009 7.742520121040747" fill="#ff6008" stroke="none" /><line stroke="#e1ed5e" stroke-width="0.3" x1="143.23703022742887" x2="145.7803849466894" y1="26.81831364943548" y2="22.513508569990506" /><path d="M 143.74570117128098 25.957352633546492 a86.0,86.0 0 0,1 28.547481713284135,27.462654790039103" fill="none" id="id14" stroke="none" /><text fill="#e1ed5e" style="font-size:6.75px; font-family:Arial;" text-anchor="middle"><textPath startOffset="19.985693538727396" xlink:href="#id14">February</textPath></text><path d="M 110.99172775467656 82.1063720568725 l 5.211171277415322 -8.483357854847643 a30.95608691082815,30.95608691082815 0 0,0 0.4516358165227341,0.28281430687338666 l -5.35642624631032 8.392399206651312" fill="#ff760a" stroke="none" /><path d="M 111.90073688211348 82.69761687909136 l 8.591851932076503 -12.49162260450767 a36.161152822795955,36.161152822795955 0 0,0 0.509818633694602,0.35716053326559893 l -8.805601705354757 12.341877228478136" fill="#ffbb11" stroke="none" /><path d="M 113.06298171725822 83.55741782278167 l 9.648004161668322 -12.144095789768295 a36.5100949982467,36.5100949982467 0 0,0 0.4887077915283199,0.3951677134004225 l -9.855615351761132 11.976221979103743" fill="#ffc011" stroke="none" /><path d="M 113.34407831869373 83.78471172551755 l 9.620207695164304 -11.690162281118425 a36.13962649000901,36.13962649000901 0 0,0 0.4769440523246964,0.39942692764527415 l -9.820009284448119 11.522834196079332" fill="#ffbb11" stroke="none" /><path d="M 113.6212207817346 84.01681056812373 l 9.979515358993243 -11.709999197355016 a36.3855389246668,36.3855389246668 0 0,0 0.4731960152336214,0.4103509214596318 l -10.179605172873629 11.536483282475713" fill="#ffbe11" stroke="none" /><path d="M 114.16331599549186 84.49514656593476 l 6.834928633798864 -7.4823273542070625 a31.134173477133636,31.134173477133636 0 0,0 0.3925754133956461,0.36485606233710244 l -6.962711930989356 7.36356670579532" fill="#ff780b" stroke="none" /><path d="M 114.94478906791727 85.2469230424477 l 15.34284206173097 -15.14602371807396 a42.559332944218845,42.559332944218845 0 0,0 0.5101764292865456,0.525781656153997 l -15.601282754720625 14.87967786636985" fill="#f3ff19" stroke="none" /><path d="M 116.15771136456269 86.58626213691792 l 14.605202140256985 -12.124882573184566 a39.98222081241502,39.98222081241502 0 0,0 0.43504751170337247,0.5333168087515193 l -14.811748144036766 11.871681594824945" fill="#ffec16" stroke="none" /><path d="M 117.04232023915458 87.72973835380427 l 12.62219178082692 -9.087823343641773 a36.553400222369866,36.553400222369866 0 0,0 0.3632492061745968,0.5137902413528345 l -12.7767536068054 8.869206601957146" fill="#ffc011" stroke="none" /><path d="M 117.2510076193507 88.02491185347247 l 12.609665279658115 -8.753219322257602 a36.3500002269889,36.3500002269889 0 0,0 0.3523795580548061,0.5170735200917761 l -12.758469303381654 8.53486777889542" fill="#ffbe11" stroke="none" /><path d="M 117.65298651832404 88.62581576622439 l 12.918450429490917 -8.323624733265667 a36.3677939275436,36.3677939275436 0 0,0 0.33453591296263496,0.529155475333617 l -13.059813938699508 8.100021610217844" fill="#ffbe11" stroke="none" /><line stroke="#e1ed5e" stroke-width="0.3" x1="172.23445277983987" x2="176.4835382374775" y1="55.19839476539836" y2="52.563006222186495" /><path d="M 173.08426987136738 54.67131705675599 a86.0,86.0 0 0,1 12.851231095245387,41.99856678651699" fill="none" id="id15" stroke="none" /><text fill="#e1ed5e" style="font-size:6.75px; font-family:Arial;" text-anchor="middle"><textPath startOffset="22.20632615414155" xlink:href="#id15">March</textPath></text><path d="M 118.03404312379186 89.2402003453031 l 25.111490439621114 -14.98247532771499 a50.24143496897461,50.24143496897461 0 0,0 0.43671847115783363,0.7464934315810957 l -25.365668585249274 14.54800248378" fill="#99ff23" stroke="none" /><path d="M 118.3937258080291 89.86733742301442 l 13.544479035200071 -7.461328785537831 a36.463645740279674,36.463645740279674 0 0,0 0.29811964983681644,0.5523704346195881 l -13.670906784255353 7.227077367585784" fill="#ffbf11" stroke="none" /><path d="M 118.73160827565052 90.50648371742162 l 2.7769611916586787 -1.4074139230943539 a24.113250296859896,24.113250296859896 0 0,0 0.18445486739708578,0.37184975708394896 l -2.800776072009173 1.359404577511455" fill="#ff1502" stroke="none" /><path d="M 119.196687751892 91.48605970444005 l 14.049032820058965 -6.2308992148166435 a36.368780960255,36.368780960255 0 0,0 0.24888246169929876,0.5744550359456695 l -14.154205991600945 5.988145034284371" fill="#ffbe11" stroke="none" /><path d="M 119.47837535516314 92.15188598940014 l 12.423608088840528 -5.005648105984679 a34.39412374536131,34.39412374536131 0 0,0 0.21652976215732062,0.5510446266602069 l -12.507931400879547 4.791054474428687" fill="#ffa40f" stroke="none" /><path d="M 119.7369772167798 92.82701384747503 l 9.385589865247901 -3.4109937604561895 a30.986199254597075,30.986199254597075 0 0,0 0.1778709932169073,0.5028652501897405 l -9.442913939274618 3.2489308838398343" fill="#ff760a" stroke="none" /><path d="M 119.97218684219823 93.5106431181261 l 29.96227927509006 -9.73533468050777 a52.504204809834334,52.504204809834334 0 0,0 0.27188306438954557,0.8619436128620758 l -30.125417823247815 9.218140901219273" fill="#80ff25" stroke="none" /><path d="M 120.28053869075195 94.5502522615342 l 18.345776876309166 -4.929842227891876 a39.9966016325875,39.9966016325875 0 0,0 0.17294467337910405,0.6664263751019548 l -18.42791788155857 4.613319427241071" fill="#ffec16" stroke="none" /><path d="M 120.67395015179393 96.31383870115 l 8.058314513797027 -1.4367959135348054 a29.185402574120722,29.185402574120722 0 0,0 0.08392629201114483,0.4953377262447692 l -8.081852667328397 1.2978723989741983" fill="#ff5d08" stroke="none" /><path d="M 120.83666639777658 97.38593545837742 l 18.381840120194397 -2.306094245147721 a39.525930931316026,39.525930931316026 0 0,0 0.07888180059695146,0.6758110952108765 l -18.418812273794938 1.989339411611992" fill="#ffe615" stroke="none" /><path d="M 120.94382443527127 98.46500227214037 l 7.973615804977895 -0.5843957573887198 a28.995002652072557,28.995002652072557 0 0,0 0.03219744407960652,0.49808020898544664 l -7.982493840061917 0.447056484150238" fill="#ff5b08" stroke="none" /><path d="M 120.96714384426684 98.82574320788733 l 62.90143153280055 -3.5227703763380056 a84.0,84.0 0 0,0 0.0684255670660141,1.444355573508001 l -62.95275070810006 2.4395036962070047" fill="#4dd2ff" stroke="none" /><line stroke="#e1ed5e" stroke-width="0.3" x1="184.98032266829074" x2="189.97916517819016" y1="98.17113171792111" y2="98.06355123074" /><path d="M 185.9800911702706 98.14961562048488 a86.0,86.0 0 0,1 -9.607161424134198,41.387399972396054" fill="none" id="id16" stroke="none" /><text fill="#e1ed5e" style="font-size:6.75px; font-family:Arial;" text-anchor="middle"><textPath startOffset="21.466115282336823" xlink:href="#id16">April</textPath></text><path d="M 120.9764740272857 100.99374915477107 l 8.105138811462034 0.38397658408727187 a29.11422905581273,29.11422905581273 0 0,0 -0.028024038586395125,0.5003880344443732 l -8.09732842198811 -0.5234363348670684" fill="#ff5c08" stroke="none" /><path d="M 120.95626037817324 101.35467743843564 l 10.298708436953712 0.665740342637608 a31.320203761224718,31.320203761224718 0 0,0 -0.039408931747891035,0.5377035631579241 l -10.285722946541483 -0.8429170422923024" fill="#ff7b0b" stroke="none" /><path d="M 120.81339534386255 102.79330883721812 l 15.229704227874272 2.043936931245763 a36.36624772179083,36.36624772179083 0 0,0 -0.0886054083643232,0.6197060197297605 l -15.192264768493347 -2.305788422955933" fill="#ffbe11" stroke="none" /><path d="M 120.64145759157962 103.86396538481128 l 9.200864000568238 1.7223502676988638 a30.36068313754904,30.36068313754904 0 0,0 -0.10058070289447194,0.5128588371373922 l -9.169853364698103 -1.880472831904201" fill="#ff6d0a" stroke="none" /><path d="M 120.49622156327973 104.57218783832717 l 9.896476139387005 2.2076531377795927 a31.139722498875617,31.139722498875617 0 0,0 -0.12120682353036782,0.522155823491532 l -9.857008749926084 -2.37767761861969" fill="#ff780b" stroke="none" /><path d="M 120.02730092923936 106.31721596034902 l 9.390629969892874 2.962088487766693 a30.84672023776497,30.84672023776497 0 0,0 -0.16408655625201446,0.5050064928486097 l -9.338251162624614 -3.123293880593098" fill="#ff740a" stroke="none" /><path d="M 119.79798401119884 107.00284435728193 l 7.652153571296857 2.7066816716034943 a29.11674688222477,29.11674688222477 0 0,0 -0.17120056373364115,0.47107042367860613 l -7.604428746557989 -2.8379998922882317" fill="#ff5c08" stroke="none" /><line stroke="#e1ed5e" stroke-width="0.3" x1="174.80103733775053" x2="179.2010983576182" y1="140.37084112569926" y2="142.7455964860345" /><path d="M 175.68104954172406 140.8457921977663 a86.0,86.0 0 0,1 -30.038265399797805,32.042727171017184" fill="none" id="id17" stroke="none" /><text fill="#e1ed5e" style="font-size:6.75px; font-family:Arial;" text-anchor="middle"><textPath startOffset="22.206326154141568" xlink:href="#id17">May</textPath></text><path d="M 118.48025628344425 109.97397251340804 l 13.567788682134413 7.322666380150241 a36.417727868854,36.417727868854 0 0,0 -0.30248146926206376,0.5490917283926214 l -13.43973080342084 -7.555128626940668" fill="#ffbe11" stroke="none" /><path d="M 118.12598468904814 110.60418214915192 l 6.527287505264009 3.818636440067402 a28.56223951206164,28.56223951206164 0 0,0 -0.2519177614534072,0.4222286584784761 l -6.460588868112374 -3.9304271924319822" fill="#ff5407" stroke="none" /><path d="M 116.93607887273984 112.41649034213515 l 6.548181205833518 4.800723314512381 a29.11945943070929,29.11945943070929 0 0,0 -0.2998454772295349,0.4016920167965474 l -6.464574461908891 -4.912728210818243" fill="#ff5c08" stroke="none" /><path d="M 116.498646956653 112.99209946851258 l 9.316730249132334 7.336594718103041 a32.85862911945537,32.85862911945537 0 0,0 -0.3537498799210308,0.4413573667320746 l -9.18906245715645 -7.495879918413366" fill="#ff8f0d" stroke="none" /><path d="M 116.0416608686014 113.55231037782055 l 11.719652940538632 9.900993137275092 a36.342096667373866,36.342096667373866 0 0,0 -0.40782320464616617,0.47439052195298526 l -11.547487226321687 -10.101260758389607" fill="#ffbd11" stroke="none" /><path d="M 115.56566222782051 114.09645910891815 l 11.18250312603057 10.127015204640676 a36.08657724994993,36.08657724994993 0 0,0 -0.4209303200245284,0.45683672763875655 l -11.006526398010319 -10.318003187080766" fill="#ffba11" stroke="none" /><path d="M 114.81725581225074 114.88116024355365 l 5.73266092460803 5.757384965340095 a29.12470817418398,29.12470817418398 0 0,0 -0.35830332113531077,0.3506752125834545 l -5.632707651096926 -5.855210280846122" fill="#ff5c08" stroke="none" /><path d="M 113.75828350139079 115.86535959552629 l 10.029780069147076 11.565837224169368 a36.30898686822357,36.30898686822357 0 0,0 -0.4757074189504258,0.40540818268160655 l -9.829207173619604 -11.73676979707392" fill="#ffbd11" stroke="none" /><path d="M 113.48314897796784 116.09983520530334 l 6.146969961760248 7.339917667453205 a30.5739036487618,30.5739036487618 0 0,0 -0.4063852283507562,0.33442737636718617 l -6.0197146048648005 -7.44464016267757" fill="#ff700a" stroke="none" /><path d="M 111.1453310114006 117.79835938074945 l 10.020485704968001 16.0020555301812 a39.88056977303574,39.88056977303574 0 0,0 -0.5849545242212311,0.3593268452625682 l -9.74355198081446 -16.17217084227215" fill="#ffea16" stroke="none" /><line stroke="#e1ed5e" stroke-width="0.3" x1="143.8653032363475" x2="146.44561519142675" y1="172.8068346515853" y2="177.08958963109032" /><path d="M 144.38136562736335 173.6633856474863 a86.0,86.0 0 0,1 -40.68145358897372,12.25698825130547" fill="none" id="id18" stroke="none" /><text fill="#e1ed5e" style="font-size:6.75px; font-family:Arial;" text-anchor="middle"><textPath startOffset="21.466115282336833" xlink:href="#id18">June</textPath></text><path d="M 109.89434966115114 118.52300852407294 l 7.212382310885698 13.502152602100958 a36.30772953408828,36.30772953408828 0 0,0 -0.5537950513512342,0.28971939689644005 l -6.978896357007969 -13.624301417942116" fill="#ffbd11" stroke="none" /><path d="M 109.2508944713604 118.85261126421891 l 4.445053187563834 9.058676439705913 a31.09049635446911,31.09049635446911 0 0,0 -0.4824761384526871,0.2316178664839386 l -4.288464381110914 -9.133848582689412" fill="#ff770b" stroke="none" /><path d="M 107.2578585660854 119.70592522655815 l 5.292195485944323 14.368922676127033 a36.31252010395308,36.31252010395308 0 0,0 -0.5884019188387972,0.210979993758057 l -5.044074006475792 -14.45789021092505" fill="#ffbd11" stroke="none" /><path d="M 106.91757812671514 119.82793768551818 l 2.7561760356205327 7.900060640233503 a29.367046340178565,29.367046340178565 0 0,0 -0.4787251817370552,0.16240957359870217 l -2.6197811209462505 -7.9463332007303284" fill="#ff6008" stroke="none" /><path d="M 106.2309692047433 120.05430185196036 l 0.5021979397418846 1.6163182230702828 a22.692538734832993,22.692538734832993 0 0,0 -0.374021692838561,0.1126896679055278 l -0.4743012724630778 -1.6247232600815362" fill="#ff0000" stroke="none" /><path d="M 104.48393922423573 120.51570834832081 l 3.2338572073962535 14.796112968807021 a36.14538845403207,36.14538845403207 0 0,0 -0.6089784316661201,0.1276173513420195 l -2.9786873143007555 -14.849586300875583" fill="#ffbb11" stroke="none" /><path d="M 103.7750983002368 120.6578951692458 l 0.8352284757101734 4.5704935133761655 a25.646183117619316,25.646183117619316 0 0,0 -0.43494830929315564,0.07562133876921721 l -0.7564311949449679 -4.584193430666389" fill="#ff2b04" stroke="none" /><path d="M 102.34483914955558 120.86867818915974 l 1.9891256293755046 17.702887059487473 a38.81428727202993,38.81428727202993 0 0,0 -0.664588213762286,0.06888728569372256 l -1.684104819007616 -17.734503713636954" fill="#ffdd14" stroke="none" /><line stroke="#e1ed5e" stroke-width="0.3" x1="102.19456741930631" x2="102.32365962044197" y1="184.97166512339345" y2="189.96999836594603" /><path d="M 102.22038585953345 185.97133177190398 a86.0,86.0 0 0,1 -42.740103519485714,-10.115201625700543" fill="none" id="id19" stroke="none" /><text fill="#e1ed5e" style="font-size:6.75px; font-family:Arial;" text-anchor="middle"><textPath startOffset="22.20632615414155" xlink:href="#id19">July</textPath></text><path d="M 100.54218724476979 120.99299961872073 l 0.2593627424123074 10.042290749358594 a31.045639478241533,31.045639478241533 0 0,0 -0.5343402647855262,0.009199152239827419 l -0.08646278773411323 -10.04526737887758" fill="#ff770a" stroke="none" /><path d="M 99.09653310690486 120.98055641714683 l -0.35869232477807944 8.329651715983344 a29.33737116202937,29.33737116202937 0 0,0 -0.5043400490892681,-0.02606861976059398 l 0.5020204422808365 -8.322243289460548" fill="#ff5f08" stroke="none" /><path d="M 97.2962882734958 120.8252237178851 l -2.2768852930905297 17.537611404260446 a38.68479630656621,38.68479630656621 0 0,0 -0.6596152149115543,-0.09141665835921053 l 2.578429099188915 -17.49582018040863" fill="#ffdb14" stroke="none" /><path d="M 95.51606077576429 120.51570834832081 l -1.9179592709505067 8.775385003904802 a29.982535818563836,29.982535818563836 0 0,0 -0.5032495117214536,-0.11453795042805698 l 2.068728932064823 -8.741070319899059" fill="#ff6809" stroke="none" /><line stroke="#e1ed5e" stroke-width="0.3" x1="58.666819895761336" x2="56.23545636021788" y1="174.27360380694188" y2="178.64263932499728" /><path d="M 58.180547188652646 175.14741091055294 a86.0,86.0 0 0,1 -31.652253787137756,-30.449443065178592" fill="none" id="id20" stroke="none" /><text fill="#e1ed5e" style="font-size:6.75px; font-family:Arial;" text-anchor="middle"><textPath startOffset="22.20632615414155" xlink:href="#id20">August</textPath></text><line stroke="#e1ed5e" stroke-width="0.3" x1="26.63291911575756" x2="22.317208475507996" y1="142.92168965132927" y2="145.44649492493687" /><path d="M 25.769776987707644 143.4266507060508 a86.0,86.0 0 0,1 -11.730757126820373,-40.83630448921669" fill="none" id="id21" stroke="none" /><text fill="#e1ed5e" style="font-size:6.75px; font-family:Arial;" text-anchor="middle"><textPath startOffset="21.46611528233685" xlink:href="#id21">September</textPath></text><line stroke="#e1ed5e" stroke-width="0.3" x1="15.007084014347285" x2="10.007500721073583" y1="101.09737516637583" y2="101.16192664675087" /><path d="M 14.007167355692545 101.11028546245083 a86.0,86.0 0 0,1 10.666146001902534,-42.60595125391555" fill="none" id="id22" stroke="none" /><text fill="#e1ed5e" style="font-size:6.75px; font-family:Arial;" text-anchor="middle"><textPath startOffset="22.20632615414155" xlink:href="#id22">October</textPath></text><line stroke="#e1ed5e" stroke-width="0.3" x1="26.266209847984243" x2="21.928928074336255" y1="57.711370442889674" y2="55.22380399835377" /><path d="M 25.398753493254645 57.213857153982495 a86.0,86.0 0 0,1 29.58750427330803,-30.492523968695096" fill="none" id="id23" stroke="none" /><text fill="#e1ed5e" style="font-size:6.75px; font-family:Arial;" text-anchor="middle"><textPath startOffset="21.46611528233685" xlink:href="#id23">November</textPath></text><line stroke="#e1ed5e" stroke-width="0.3" x1="56.762969772571076" x2="54.21961505331055" y1="26.818313649435495" y2="22.513508569990535" /><path d="M 56.25429882871897 25.957352633546506 a86.0,86.0 0 0,1 42.265352541879196,-11.944610805530505" fill="none" id="id24" stroke="none" /><text fill="#e1ed5e" style="font-size:6.75px; font-family:Arial;" text-anchor="middle"><textPath startOffset="22.20632615414155" xlink:href="#id24">December</textPath></text></svg>