<?xml version="1.0" encoding="utf-8" ?>
<svg baseProfile="full" height="200mm" version="1.1" viewBox="0,0,200,200" width="200mm" xmlns="http://www.w3.org/2000/svg" xmlns:ev="http://www.w3.org/2001/xml-events" xmlns:xlink="http://www.w3.org/1999/xlink"><defs /><rect fill="#1a1a1a" height="200" width="200" x="0" y="0" /><text alignment-baseline="middle" fill="#e1ed5e" style="dominant-baseline: central; font-size:9.0px; font-family:Arial;" text-anchor="middle" x="100.0" y="100.0">2025</text><line stroke="#e1ed5e" stroke-width="0.3" x1="100.0" x2="100.0" y1="15.0" y2="10.0" /><path d="M 100.0 14.0 a86.0,86.0 0 0,1 42.46469731375804,11.215312516191453" fill="none" id="id13" stroke="none" /><text fill="#e1ed5e" style="font-size:6.75px; font-family:Arial;" text-anchor="middle"><textPath startOffset="22.20632615414155" xlink:href="#id13">January</textPath></text><path d="M 101.44485096284872 79.0497635885617 l 1.2131865084355187 -17.591118265083466 a38.63290286142367,38.63290286142367 0 0,0 0.6630322478413702,0.05146406325937362 l -1.51580894563923 17.56762893963563" fill="#ffdb14" stroke="none" /><path d="M 101.80526077348638 79.07773832637324 l 1.2986701749891463 -15.05107607051355 a36.106999540073865,36.106999540073865 0 0,0 0.6187619938398425,0.05875890707013024 l -1.557557295919233 15.026491618928242" fill="#ffba11" stroke="none" /><path d="M 102.16513564639614 79.11191278185805 l 1.482762841434869 -14.304914155038988 a35.38155605722047,35.38155605722047 0 0,0 0.6052491913043218,0.06800679880839011 l -1.7287787362489162 14.277271402759999" fill="#ffb110" stroke="none" /><path d="M 102.88285421437855 79.19881850522331 l 1.3901303607845894 -10.030460018358216 a31.12633154700446,31.12633154700446 0 0,0 0.5300829374605192,0.07812044573150359 l -1.5625822786737644 10.005045088465742" fill="#ff780b" stroke="none" /><path d="M 103.2404852339499 79.25152402106235 l 2.372277526682863 -15.189436064103333 a36.37357045741449,36.37357045741449 0 0,0 0.6177804881242658,0.1019390738879861 l -2.633387220946004 15.146350727275722" fill="#ffbe11" stroke="none" /><path d="M 103.59715602781102 79.31037775812273 l 5.444064935691504 -31.312416283551944 a52.78215311363399,52.78215311363399 0 0,0 0.8937900555191409,0.16333441968386297 l -5.982250112313546 31.21406638251734" fill="#7dff26" stroke="none" /><path d="M 105.01212808612495 79.60689891045804 l 3.612929332333122 -14.70010978123353 a36.137585208372926,36.137585208372926 0 0,0 0.6027940420419311,0.1536656230857115 l -3.8654322630600784 14.635741161978952" fill="#ffbb11" stroke="none" /><path d="M 105.36241919743992 79.69619591428918 l 3.850951983051948 -14.580914271807503 a36.0808783622696,36.0808783622696 0 0,0 0.5991180211231404,0.16376158698731663 l -4.101367893398799 14.512466143993892" fill="#ffba11" stroke="none" /><path d="M 105.71112130821622 79.79150937346287 l 4.978055552919302 -17.61457751472125 a39.304490654210355,39.304490654210355 0 0,0 0.6494782259242442,0.18960050401289094 l -5.2805239965669735 17.52627868178966" fill="#ffe315" stroke="none" /><path d="M 107.08798089147638 80.2323363322302 l 5.192322353335627 -14.48086323974307 a36.38361503643051,36.38361503643051 0 0,0 0.5877126320306607,0.21645952228782364 l -5.440817311138865 14.389340449648921" fill="#ffbe11" stroke="none" /><path d="M 107.76421540070413 80.48803036053334 l 3.095444853185905 -7.7790507963662625 a29.372300169700182,29.372300169700182 0 0,0 0.46816107876620927,0.1909746588533698 l -3.2288898015405016 7.724615251329314" fill="#ff6008" stroke="none" /><line stroke="#e1ed5e" stroke-width="0.3" x1="143.23703022742887" x2="145.7803849466894" y1="26.81831364943548" y2="22.513508569990506" /><path d="M 143.74570117128098 25.957352633546492 a86.0,86.0 0 0,1 28.547481713284135,27.462654790039103" fill="none" id="id14" stroke="none" /><text fill="#e1ed5e" style="font-size:6.75px; font-family:Arial;" text-anchor="middle"><textPath startOffset="19.985693538727396" xlink:href="#id14">February</textPath></text><path d="M 110.99172775467656 82.1063720568725 l 5.199120247349216 -8.463739769943514 a30.933063084452854,30.933063084452854 0 0,0 0.45129990893032945,0.2826039615698391 l -5.344039308651809 8.37299146705073" fill="#ff750a" stroke="none" /><path d="M 111.90073688211348 82.69761687909136 l 8.571982950528016 -12.462735256238432 a36.126092085242355,36.126092085242355 0 0,0 0.5093243292844662,0.356814241437385 l -8.785238419396133 12.313336172037111" fill="#ffbb11" stroke="none" /><path d="M 113.06298171725822 83.55741782278167 l 9.625692788266708 -12.116012110361627 a36.47422731875551,36.47422731875551 0 0,0 0.4882276828232555,0.3947794988835829 l -9.832823869654455 11.948526514213915" fill="#ffbf11" stroke="none" /><path d="M 113.34407831869373 83.78471172551755 l 9.597960602139546 -11.663128340066063 a36.10461553291162,36.10461553291162 0 0,0 0.47648200361596366,0.39903997513951994 l -9.797300142714628 11.496187207532722" fill="#ffba11" stroke="none" /><path d="M 113.6212207817346 84.01681056812373 l 9.956437353448196 -11.682919382685906 a36.349959285792146,36.349959285792146 0 0,0 0.47273329999464164,0.40994965936406025 l -10.156064452089602 11.509804729902173" fill="#ffbe11" stroke="none" /><path d="M 114.16331599549186 84.49514656593476 l 6.81912260362239 -7.465024190079493 a31.110737818859008,31.110737818859008 0 0,0 0.39227990970282706,0.36458142385978304 l -6.946610397120065 7.346538180145069" fill="#ff780b" stroke="none" /><path d="M 114.94478906791727 85.2469230424477 l 15.307361160961742 -15.11099796714547 a42.50947617389123,42.50947617389123 0 0,0 0.5095787754395072,0.5251657213293676 l -15.565204200104358 14.845268050265988" fill="#f3ff19" stroke="none" /><path d="M 116.15771136456269 86.58626213691792 l 14.57142705961886 -12.096843325065684 a39.938323711062154,39.938323711062154 0 0,0 0.4345698662818198,0.5327312719421262 l -14.77749541797709 11.844227883515456" fill="#ffeb16" stroke="none" /><path d="M 117.04232023915458 87.72973835380427 l 12.593002486414335 -9.06680740950345 a36.51743239791507,36.51743239791507 0 0,0 0.36289177612427176,0.51328468189475 l -12.74720688234249 8.848696227276907" fill="#ffc011" stroke="none" /><path d="M 117.2510076193507 88.02491185347247 l 12.580504953251793 -8.732977172534968 a36.31450277269261,36.31450277269261 0 0,0 0.3520354431392934,0.5165685739148116 l -12.72896486205982 8.51513057534975" fill="#ffbd11" stroke="none" /><path d="M 117.65298651832404 88.62581576622439 l 12.888576025782864 -8.304376037227925 a36.33225532464387,36.33225532464387 0 0,0 0.3342090045174825,0.5286383846806186 l -13.029612626546303 8.0812900048331" fill="#ffbd11" stroke="none" /><line stroke="#e1ed5e" stroke-width="0.3" x1="172.23445277983987" x2="176.4835382374775" y1="55.19839476539836" y2="52.563006222186495" /><path d="M 173.08426987136738 54.67131705675599 a86.0,86.0 0 0,1 12.851231095245387,41.99856678651699" fill="none" id="id15" stroke="none" /><text fill="#e1ed5e" style="font-size:6.75px; font-family:Arial;" text-anchor="middle"><textPath startOffset="22.20632615414155" xlink:href="#id15">March</textPath></text><path d="M 118.03404312379186 89.2402003453031 l 25.053419171151372 -14.947827788605794 a50.173813048061284,50.173813048061284 0 0,0 0.43613067461228794,0.7454886967477085 l -25.30700952023399 14.51435967950419" fill="#9aff23" stroke="none" /><path d="M 118.3937258080291 89.86733742301442 l 13.513156916736927 -7.444074181392058 a36.4278854764489,36.4278854764489 0 0,0 0.29782728090017097,0.5518287193831302 l -13.639292296855562 7.21036447867647" fill="#ffbf11" stroke="none" /><path d="M 118.73160827565052 90.50648371742162 l 2.770539364197713 -1.40415922533069 a24.10605078816338,24.10605078816338 0 0,0 0.18439979458833577,0.3717387336620973 l -2.794299171739457 1.3562609031696429" fill="#ff1502" stroke="none" /><path d="M 119.196687751892 91.48605970444005 l 14.01654390194415 -6.216490025446482 a36.33324007480491,36.33324007480491 0 0,0 0.24863924477455615,0.5738936577501483 l -14.121473856561387 5.974297223109731" fill="#ffbd11" stroke="none" /><path d="M 119.47837535516314 92.15188598940014 l 12.394878026703246 -4.994072356001751 a34.36314932917506,34.36314932917506 0 0,0 0.21633476131882198,0.5505483707959861 l -12.479006337903769 4.77997498030998" fill="#ffa40f" stroke="none" /><path d="M 119.7369772167798 92.82701384747503 l 9.363885334801088 -3.403105708773701 a30.96310579229143,30.96310579229143 0 0,0 0.17773842913431775,0.5024904736769885 l -9.421076844745215 3.241417608670098" fill="#ff760a" stroke="none" /><path d="M 119.97218684219823 93.5106431181261 l 29.892990374539426 -9.712821351988545 a52.43135014834634,52.43135014834634 0 0,0 0.2715058003457959,0.8607475827466926 l -30.055751658653428 9.196823602815433" fill="#81ff25" stroke="none" /><path d="M 120.28053869075195 94.5502522615342 l 18.303351575555652 -4.918441781860301 a39.95267127504576,39.95267127504576 0 0,0 0.17275471920734028,0.6656944041909657 l -18.385302626633294 4.602650952120484" fill="#ffeb16" stroke="none" /><path d="M 120.67395015179393 96.31383870115 l 8.039679357645326 -1.4334732688104024 a29.16647352203767,29.16647352203767 0 0,0 0.08387185914359806,0.4950164603792402 l -8.063163078309147 1.2948710201153244" fill="#ff5d08" stroke="none" /><path d="M 120.83666639777658 97.38593545837742 l 18.33933142182963 -2.300761315254592 a39.4830890175176,39.4830890175176 0 0,0 0.0787963010977161,0.675078587715092 l -18.376218075930936 1.984738989214647" fill="#ffe615" stroke="none" /><path d="M 120.94382443527127 98.46500227214037 l 7.955176517783901 -0.5830443201651312 a28.976513906988266,28.976513906988266 0 0,0 0.03217691328872863,0.4977626067377088 l -7.964034022077045 0.44602264917438716" fill="#ff5a08" stroke="none" /><path d="M 120.96714384426684 98.82574320788733 l 62.75596960068406 -3.5146238370167557 a83.85431012458659,83.85431012458659 0 0,0 0.06830688953814577,1.4418504784656552 l -62.8071700984557 2.4338622519281006" fill="#4dd3ff" stroke="none" /><line stroke="#e1ed5e" stroke-width="0.3" x1="184.98032266829074" x2="189.97916517819016" y1="98.17113171792111" y2="98.06355123074" /><path d="M 185.9800911702706 98.14961562048488 a86.0,86.0 0 0,1 -9.607161424134198,41.387399972396054" fill="none" id="id16" stroke="none" /><text fill="#e1ed5e" style="font-size:6.75px; font-family:Arial;" text-anchor="middle"><textPath startOffset="21.466115282336823" xlink:href="#id16">April</textPath></text><path d="M 120.9764740272857 100.99374915477107 l 8.086395372356474 0.38308862375874264 a29.09546459517436,29.09546459517436 0 0,0 -0.028005976766246134,0.5000655285123685 l -8.078603044702698 -0.5222258686065344" fill="#ff5c08" stroke="none" /><path d="M 120.95626037817324 101.35467743843564 l 10.274892285380716 0.6642007929935357 a31.296337900903865,31.296337900903865 0 0,0 -0.03937890231169517,0.5372938353595297 l -10.261936824404684 -0.8409677648498357" fill="#ff7a0b" stroke="none" /><path d="M 120.81339534386255 102.79330883721812 l 15.194484962611696 2.0392102500256666 a36.3307126945502,36.3307126945502 0 0,0 -0.08851882820285092,0.6191004782820768 l -15.157132083392243 -2.300456200288153" fill="#ffbd11" stroke="none" /><path d="M 120.64145759157962 103.86396538481128 l 9.179586655648581 1.7183672677636372 a30.339036204849137,30.339036204849137 0 0,0 -0.10050898962976701,0.5124931727456602 l -9.14864773304315 -1.8761241675772424" fill="#ff6d0a" stroke="none" /><path d="M 120.49622156327973 104.57218783832717 l 9.873590165168288 2.2025478566589713 a31.116274008278985,31.116274008278985 0 0,0 -0.12111555370412251,0.5217626354688205 l -9.834214045533612 -2.3721791494763567" fill="#ff780b" stroke="none" /><path d="M 120.02730092923936 106.31721596034902 l 9.368913784014033 2.955238546453262 a30.823949325944803,30.823949325944803 0 0,0 -0.163965428285265,0.5046336992994533 l -9.316656104712521 -3.11607114573051" fill="#ff740a" stroke="none" /><path d="M 119.79798401119884 107.00284435728193 l 7.634457677638977 2.700422368182547 a29.09797659901789,29.09797659901789 0 0,0 -0.1710901982769692,0.47076674534192253 l -7.586843218356781 -2.831436910530601" fill="#ff5c08" stroke="none" /><line stroke="#e1ed5e" stroke-width="0.3" x1="174.80103733775053" x2="179.2010983576182" y1="140.37084112569926" y2="142.7455964860345" /><path d="M 175.68104954172406 140.8457921977663 a86.0,86.0 0 0,1 -30.038265399797805,32.042727171017184" fill="none" id="id17" stroke="none" /><text fill="#e1ed5e" style="font-size:6.75px; font-family:Arial;" text-anchor="middle"><textPath startOffset="22.206326154141568" xlink:href="#id17">May</textPath></text><path d="M 118.48025628344425 109.97397251340804 l 13.536412659233847 7.305732438045191 a36.382073791832234,36.382073791832234 0 0,0 -0.30218533058911956,0.5485541506819354 l -13.408650919193217 -7.537657107124932" fill="#ffbe11" stroke="none" /><path d="M 118.12598468904814 110.60418214915192 l 6.512192906796876 3.8098056993181557 a28.54475154805595,28.54475154805595 0 0,0 -0.2517635183401236,0.42197013814856554 l -6.445648512758524 -3.9213379313528254" fill="#ff5407" stroke="none" /><path d="M 116.93607887273984 112.41649034213515 l 6.533038289896022 4.789621460836421 a29.100682874631765,29.100682874631765 0 0,0 -0.29965213348181907,0.40143300125069836 l -6.449624889719112 -4.901367341596434" fill="#ff5c08" stroke="none" /><path d="M 116.498646956653 112.99209946851258 l 9.29518495914414 7.3196285661913105 a32.83120559248732,32.83120559248732 0 0,0 -0.35345464333837573,0.4409890137005125 l -9.16781240375091 -7.478545413470073" fill="#ff8f0d" stroke="none" /><path d="M 116.0416608686014 113.55231037782055 l 11.692550801224419 9.878096717328448 a36.3066174903572,36.3066174903572 0 0,0 -0.4074250649405356,0.4739273955280724 l -11.520783226713105 -10.07790121201805" fill="#ffbd11" stroke="none" /><path d="M 115.56566222782051 114.09645910891815 l 11.156643165915625 10.10359610014109 a36.05168897122041,36.05168897122041 0 0,0 -0.4205233672057835,0.45639506072816677 l -10.98107339071412 -10.294142415670592" fill="#ffba11" stroke="none" /><path d="M 114.81725581225074 114.88116024355365 l 5.719403930070036 5.744070795525689 a29.105919480189257,29.105919480189257 0 0,0 -0.3580721754215806,0.35044898785284573 l -5.619681802272661 -5.841669886301106" fill="#ff5c08" stroke="none" /><path d="M 113.75828350139079 115.86535959552629 l 10.006585824564569 11.539090789498875 a36.27358425886584,36.27358425886584 0 0,0 -0.4752435865669225,0.40501289466175644 l -9.8064767614206 -11.709628074383577" fill="#ffbd11" stroke="none" /><path d="M 113.48314897796784 116.09983520530334 l 6.132754861952329 7.322943831095809 a30.55176363559024,30.55176363559024 0 0,0 -0.4060909455397754,0.33418520164842075 l -6.005793787867863 -7.427424151601407" fill="#ff700a" stroke="none" /><path d="M 111.1453310114006 117.79835938074945 l 9.997312953953102 15.965050173410559 a39.83690774354419,39.83690774354419 0 0,0 -0.584314104542347,0.35893344718916437 l -9.721019649478446 -16.1347720874281" fill="#ffea16" stroke="none" /><line stroke="#e1ed5e" stroke-width="0.3" x1="143.8653032363475" x2="146.44561519142675" y1="172.8068346515853" y2="177.08958963109032" /><path d="M 144.38136562736335 173.6633856474863 a86.0,86.0 0 0,1 -40.68145358897372,12.25698825130547" fill="none" id="id18" stroke="none" /><text fill="#e1ed5e" style="font-size:6.75px; font-family:Arial;" text-anchor="middle"><textPath startOffset="21.466115282336833" xlink:href="#id18">June</textPath></text><path d="M 109.89434966115114 118.52300852407294 l 7.195703404849083 13.470928365110279 a36.27232983236315,36.27232983236315 0 0,0 -0.55325510627931,0.28943692315418934 l -6.962757396043278 -13.592794707209185" fill="#ffbd11" stroke="none" /><path d="M 109.2508944713604 118.85261126421891 l 4.4347738344669745 9.037727908881926 a31.06716170118749,31.06716170118749 0 0,0 -0.48211402093358774,0.2314440280689255 l -4.278547145533154 -9.112726213450413" fill="#ff770b" stroke="none" /><path d="M 107.2578585660854 119.70592522655815 l 5.279957084340978 14.335694000658618 a36.277109323854496,36.277109323854496 0 0,0 -0.587828128562112,0.21077425297931793 l -5.0324093951491315 -14.424455794677897" fill="#ffbd11" stroke="none" /><path d="M 106.91757812671514 119.82793768551818 l 2.749802274616613 7.881791452131377 a29.34769723003763,29.34769723003763 0 0,0 -0.4784097633541041,0.16230256655784756 l -2.6137227783252817 -7.9279570055873485" fill="#ff5f08" stroke="none" /><path d="M 106.2309692047433 120.05430185196036 l 0.501036588070871 1.6125804262361951 a22.688624675191562,22.688624675191562 0 0,0 -0.37395718074363565,0.11267023094052757 l -0.4732044328869895 -1.6209660262824483" fill="#ff0000" stroke="none" /><path d="M 104.48393922423573 120.51570834832081 l 3.226378790671644 14.761896399679584 a36.11036417217563,36.11036417217563 0 0,0 -0.6083883416671623,0.1274936922454003 l -2.971798987575104 -14.815246072651526" fill="#ffba11" stroke="none" /><path d="M 103.7750983002368 120.6578951692458 l 0.8332969783678251 4.5599240747961405 a25.635438643975604,25.635438643975604 0 0,0 -0.4347660876103366,0.07558965719392853 l -0.7546819192854386 -4.573592310511075" fill="#ff2b04" stroke="none" /><path d="M 102.34483914955558 120.86867818915974 l 1.984525701357642 17.661948465675497 a38.77309106102611,38.77309106102611 0 0,0 -0.6638828416375084,0.06881417098889674 l -1.680210263114531 -17.693492005120152" fill="#ffdd14" stroke="none" /><line stroke="#e1ed5e" stroke-width="0.3" x1="102.19456741930631" x2="102.32365962044197" y1="184.97166512339345" y2="189.96999836594603" /><path d="M 102.22038585953345 185.97133177190398 a86.0,86.0 0 0,1 -42.740103519485714,-10.115201625700543" fill="none" id="id19" stroke="none" /><text fill="#e1ed5e" style="font-size:6.75px; font-family:Arial;" text-anchor="middle"><textPath startOffset="22.20632615414155" xlink:href="#id19">July</textPath></text><path d="M 100.54218724476979 120.99299961872073 l 0.25876295629121315 10.01906757335638 a31.022408558177514,31.022408558177514 0 0,0 -0.5339404271211444,0.009192268671831018 l -0.08626283927740083 -10.02203731930737" fill="#ff770a" stroke="none" /><path d="M 99.09653310690486 120.98055641714683 l -0.357862835252545 8.310389082320821 a29.318090676856805,29.318090676856805 0 0,0 -0.5040085974133599,-0.026051487494925477 l 0.5008595010793937 -8.302997788063694" fill="#ff5f08" stroke="none" /><path d="M 97.2962882734958 120.8252237178851 l -2.2716199100003553 17.497055016632896 a38.64389954830248,38.64389954830248 0 0,0 -0.65891788349025,-0.09132001457831616 l 2.5724663846774365 -17.455360436561975" fill="#ffdb14" stroke="none" /><path d="M 95.51606077576429 120.51570834832081 l -1.9135239178198271 8.755091595207599 a29.96176336579712,29.96176336579712 0 0,0 -0.5029008511953604,-0.1144585964274594 l 2.0639449184080503 -8.720856265202453" fill="#ff6809" stroke="none" /><path d="M 94.81253420990036 120.34920634021253 l -2.4934003952927655 9.781022407784475 a31.09383202123099,31.09383202123099 0 0,0 -0.5175043552873514,-0.13667760375528187 l 2.661395193391606 -9.73665345472561" fill="#ff780b" stroke="none" /><path d="M 93.08242187328487 119.8279376855182 l -3.195077731383533 9.158089868707084 a30.699439764898706,30.699439764898706 0 0,0 -0.4974485167438559,-0.1783673397338567 l 3.3522458087571154 -9.101734987933268" fill="#ff720a" stroke="none" /><path d="M 91.7346041902142 119.30500536409082 l -3.884589960650594 9.073011354019663 a30.86962887815733,30.86962887815733 0 0,0 -0.4866807572641035,-0.2133465417555163 l 4.04019139257244 -9.004800258969693" fill="#ff740a" stroke="none" /><path d="M 90.42595943632237 118.69057910512821 l -4.600463106046336 8.981089962162617 a31.090799656050635,31.090799656050635 0 0,0 -0.4742221894075771,-0.24809063637322878 l 4.754376197980409 -8.900569906844671" fill="#ff780b" stroke="none" /><path d="M 90.10565033884886 118.52300852407294 l -4.75496039749858 8.90166357474862 a31.092039574822635,31.092039574822635 0 0,0 -0.469900194929817,-0.2562270525846844 l 4.907483404297038 -8.81849587040417" fill="#ff780b" stroke="none" /><line stroke="#e1ed5e" stroke-width="0.3" x1="58.666819895761336" x2="56.23545636021788" y1="174.27360380694188" y2="178.64263932499728" /><path d="M 58.180547188652646 175.14741091055294 a86.0,86.0 0 0,1 -31.652253787137756,-30.449443065178592" fill="none" id="id20" stroke="none" /><text fill="#e1ed5e" style="font-size:6.75px; font-family:Arial;" text-anchor="middle"><textPath startOffset="22.20632615414155" xlink:href="#id20">August</textPath></text><path d="M 87.36589467227662 116.77436683061367 l -5.811653322676189 7.716162102353789 a30.659941611250765,30.659941611250765 0 0,0 -0.4188312587778553,-0.3211419493497725 l 5.943613309947531 -7.6149808111766495" fill="#ff720a" stroke="none" /><path d="M 87.07902340077011 116.55440617244103 l -6.089536146480437 7.801937724785211 a30.89710476557253,30.89710476557253 0 0,0 -0.4164378095534339,-0.3308433817717962 l 6.22293144875123 -7.6959604290082835" fill="#ff750a" stroke="none" /><path d="M 85.97065885151581 115.62618273729859 l -13.784386297886531 15.353346741843424 a41.63333617679497,41.63333617679497 0 0,0 -0.5291407706087846,-0.48335754814454296 l 14.04662661796217 -15.113796427112305" fill="#feff18" stroke="none" /><path d="M 84.67929136418377 114.36230785411682 l -7.232793039495182 6.78033913101754 a30.913944416012107,30.913944416012107 0 0,0 -0.36059436798678773,-0.3913539681970387 l 7.348433815477699 -6.654833908019157" fill="#ff750a" stroke="none" /><path d="M 84.19399662182784 113.82643327865904 l -20.250758976127837 17.714520307664028 a47.90534275640925,47.90534275640925 0 0,0 -0.5375834691489083,-0.6253310248594321 l 20.552684954847525 -17.363312183643064" fill="#b4ff20" stroke="none" /><path d="M 83.28015986056508 112.70617746262583 l -8.429821445631571 6.4062100099758394 a31.58779562974015,31.58779562974015 0 0,0 -0.32526213880331134,-0.43574178850608997 l 8.538844851129967 -6.260155341960441" fill="#ff7e0b" stroke="none" /><path d="M 82.05923443525364 110.91462005526583 l -6.806695442596838 4.1409879817971005 a28.96736369909499,28.96736369909499 0 0,0 -0.2554909398893905,-0.4282175110660249 l 6.87696725818446 -4.0232083768449645" fill="#ff5a08" stroke="none" /><line stroke="#e1ed5e" stroke-width="0.3" x1="26.63291911575756" x2="22.317208475507996" y1="142.92168965132927" y2="145.44649492493687" /><path d="M 25.769776987707644 143.4266507060508 a86.0,86.0 0 0,1 -11.730757126820373,-40.83630448921669" fill="none" id="id21" stroke="none" /><text fill="#e1ed5e" style="font-size:6.75px; font-family:Arial;" text-anchor="middle"><textPath startOffset="21.46611528233685" xlink:href="#id21">September</textPath></text><path d="M 81.69416730710424 110.29060199501025 l -7.305914207767478 4.107010950176712 a29.381164677783758,29.381164677783758 0 0,0 -0.24403658274263423,-0.44299728289499424 l 7.3755271999616285 -3.9806431488838956" fill="#ff6008" stroke="none" /><path d="M 81.35079622478065 109.6543875284942 l -10.541545059016782 5.457185324129699 a32.87034304024857,32.87034304024857 0 0,0 -0.2557959611532929,-0.5047096987245768 l 10.633919689956342 -5.274921413702438" fill="#ff900d" stroke="none" /><path d="M 80.58989483394504 108.01547362559985 l -17.239426006261656 7.119083760315119 a39.65151904300969,39.65151904300969 0 0,0 -0.2550865030206673,-0.6331037810054376 l 17.359415123539712 -6.821280611466876" fill="#ffe815" stroke="none" /><path d="M 79.86692584326677 105.97154293290107 l -6.7783766490391795 2.0104911381143697 a28.07025208975437,28.07025208975437 0 0,0 -0.13341037347717669,-0.46441901187079276 l 6.81197965940246 -1.893514650738981" fill="#ff4e07" stroke="none" /><path d="M 79.58551787078972 104.9243191809786 l -11.543590484583232 2.7845097260272387 a32.87467791942589,32.87467791942589 0 0,0 -0.12795988420710222,-0.5512478321428866 l 11.589810934720889 -2.5853932365357775" fill="#ff900d" stroke="none" /><path d="M 79.50377843672027 104.57218783832718 l -15.020841643649161 3.3507692758148284 a36.39004023462348,36.39004023462348 0 0,0 -0.1311184464385268,-0.6125417301823419 l 15.076294128812128 -3.0917137262163226" fill="#ffbe11" stroke="none" /><path d="M 79.29508885075956 103.50808413554451 l -14.946146272762501 2.5323624066326564 a36.15916052310743,36.15916052310743 0 0,0 -0.09869426880728524,-0.6145693060740116 l 14.987522295931077 -2.274713870865431" fill="#ffbb11" stroke="none" /><path d="M 79.18660465613746 102.79330883721812 l -16.297439366551796 2.187234742554377 a37.44355575067233,37.44355575067233 0 0,0 -0.08023349986722646,-0.6395399363864651 l 16.33267437566587 -1.9063770518805034" fill="#ffcc13" stroke="none" /><path d="M 79.1416061653843 102.43462659150553 l -17.97056246097781 2.097554086796433 a39.09256334273674,39.09256334273674 0 0,0 -0.07226111130425648,-0.6690481453491296 l 18.004005873783118 -1.787909619562521" fill="#ffe115" stroke="none" /><line stroke="#e1ed5e" stroke-width="0.3" x1="15.007084014347285" x2="10.007500721073583" y1="101.09737516637583" y2="101.16192664675087" /><path d="M 14.007167355692545 101.11028546245083 a86.0,86.0 0 0,1 10.666146001902534,-42.60595125391555" fill="none" id="id22" stroke="none" /><text fill="#e1ed5e" style="font-size:6.75px; font-family:Arial;" text-anchor="middle"><textPath startOffset="22.20632615414155" xlink:href="#id22">October</textPath></text><path d="M 79.00486145842228 99.54816195383935 l -17.769518784809105 -0.3824192268625885 a38.77363334573879,38.77363334573879 0 0,0 0.020103769853961576,-0.6671462486006245 l 17.760303320499496 0.6882356228882075" fill="#ffdd14" stroke="none" /><path d="M 79.01574976396665 99.18683210126434 l -4.652011050985683 -0.18027168036384142 a25.65550262562853,25.65550262562853 0 0,0 0.020898718041928648,-0.44113890724374716 l 4.648218724710256 0.26032169423059764" fill="#ff2b04" stroke="none" /><path d="M 79.08570108090925 98.10471618934814 l -15.11763284771459 -1.369981604570936 a36.17958077534297,36.17958077534297 0 0,0 0.06154469604320155,-0.6197466901784022 l 15.09181102598916 1.6300038254537685" fill="#ffbb11" stroke="none" /><path d="M 79.12142395522702 97.74499172005258 l -9.839089712935472 -1.0626792134787204 a30.896311105151877,30.896311105151877 0 0,0 0.061659690090867185,-0.5282625697603758 l 9.819339669841016 1.231885521563958" fill="#ff750a" stroke="none" /><path d="M 79.21141760316559 97.0276538004421 l -9.741388324484742 -1.3928212136826148 a30.840457175441188,30.840457175441188 0 0,0 0.07966252597167944,-0.5248765127969692 l 9.71596990507376 1.560296838871676" fill="#ff740a" stroke="none" /><path d="M 79.26566170972629 96.67025291283419 l -18.725515731409367 -3.0071483637163516 a39.96543911141162,39.96543911141162 0 0,0 0.11492564149833427,-0.6782976416907405 l 18.67097822839081 3.3290317937229204" fill="#ffec16" stroke="none" /><path d="M 79.46518482838121 95.60439243477599 l -14.757735771688326 -3.1589870403735616 a36.092049702681784,36.092049702681784 0 0,0 0.1352688998191665,-0.6063839543235255 l 14.70117248486712 3.412549164247046" fill="#ffba11" stroke="none" /><path d="M 79.62865764111835 94.90015583598534 l -30.27190544702919 -7.57839113436364 a52.20609350077765,52.20609350077765 0 0,0 0.22573832326630086,-0.8698618440024918 l 30.13697079189258 8.098349403914996" fill="#84ff25" stroke="none" /><path d="M 79.81627453868168 94.20196356495316 l -15.63831479083795 -4.492308375566269 a37.27076285975934,37.27076285975934 0 0,0 0.18243879200625107,-0.6150929114633858 l 15.558670101719992 4.760830673776193" fill="#ffc912" stroke="none" /><path d="M 80.2630227832202 92.82701384747504 l -11.19018009587337 -4.066833841390839 a32.90627011584914,32.90627011584914 0 0,0 0.1980572167699689,-0.5306948730905198 l 11.118518290601772 4.2588518515107" fill="#ff900d" stroke="none" /><path d="M 80.803312248108 91.48605970444005 l -57.59006325567602 -25.54182088667983 a84.0,84.0 0 0,0 0.5975907321465934,-1.3167119646317162 l 57.141870206566075 26.529354860153617" fill="#4dd2ff" stroke="none" /><path d="M 81.6062741919709 89.86733742301443 l -19.04377481332909 -10.490758989749025 a42.742156823134806,42.742156823134806 0 0,0 0.3605450702809013,-0.641369449329678 l 18.860372101755758 10.817011949013487" fill="#f0ff19" stroke="none" /><line stroke="#e1ed5e" stroke-width="0.3" x1="26.266209847984243" x2="21.928928074336255" y1="57.711370442889674" y2="55.22380399835377" /><path d="M 25.398753493254645 57.213857153982495 a86.0,86.0 0 0,1 29.58750427330803,-30.492523968695096" fill="none" id="id23" stroke="none" /><text fill="#e1ed5e" style="font-size:6.75px; font-family:Arial;" text-anchor="middle"><textPath startOffset="21.46611528233685" xlink:href="#id23">November</textPath></text><line stroke="#e1ed5e" stroke-width="0.3" x1="56.762969772571076" x2="54.21961505331055" y1="26.818313649435495" y2="22.513508569990535" /><path d="M 56.25429882871897 25.957352633546506 a86.0,86.0 0 0,1 42.265352541879196,-11.944610805530505" fill="none" id="id24" stroke="none" /><text fill="#e1ed5e" style="font-size:6.75px; font-family:Arial;" text-anchor="middle"><textPath startOffset="22.20632615414155" xlink:href="#id24">December</textPath></text></svg>