<?xml version="1.0" encoding="utf-8" ?>
<svg baseProfile="full" height="200mm" version="1.1" viewBox="0,0,200,200" width="200mm" xmlns="http://www.w3.org/2000/svg" xmlns:ev="http://www.w3.org/2001/xml-events" xmlns:xlink="http://www.w3.org/1999/xlink"><defs /><rect fill="#1a1a1a" height="200" width="200" x="0" y="0" /><text alignment-baseline="middle" fill="#e1ed5e" style="dominant-baseline: central; font-size:9.0px; font-family:Arial;" text-anchor="middle" x="100.0" y="100.0">2025</text><line stroke="#e1ed5e" stroke-width="0.3" x1="100.0" x2="100.0" y1="15.0" y2="10.0" /><path d="M 100.0 14.0 a86.0,86.0 0 0,1 42.46469731375804,11.215312516191453" fill="none" id="id13" stroke="none" /><text fill="#e1ed5e" style="font-size:6.75px; font-family:Arial;" text-anchor="middle"><textPath startOffset="22.20632615414155" xlink:href="#id13">January</textPath></text><path d="M 101.44485096284872 79.0497635885617 l 2.4048323522376536 -34.86989842185496 a55.95272571049148,55.95272571049148 0 0,0 0.9602814894275761,0.0745363253138933 l -3.0047040310275706 34.8233368343526" fill="#bfff1e" stroke="none" /><path d="M 101.80526077348638 79.07773832637324 l 2.574281884924231 -29.8349136086562 a50.94576760176683,50.94576760176683 0 0,0 0.8730524590940854,0.08290685081174555 l -3.0874594711085606 29.78618121332928" fill="#fff016" stroke="none" /><path d="M 102.16513564639614 79.11191278185805 l 2.939198570858428 -28.355838213517796 a49.50776120690877,49.50776120690877 0 0,0 0.8468969647719609,0.09515874175819282 l -3.426862239140114 28.301043518289003" fill="#ffd814" stroke="none" /><path d="M 102.88285421437855 79.19881850522331 l 2.7555783403440857 -19.88282476952405 a41.0728655852963,41.0728655852963 0 0,0 0.6994728950469662,0.10308412226953463 l -3.097420215819708 19.832446163093547" fill="#ff4306" stroke="none" /><path d="M 103.2404852339499 79.25152402106235 l 4.702434213524301 -30.109176952772327 a51.474176351558384,51.474176351558384 0 0,0 0.8742540639360888,0.14425941144733367 l -5.220017483599265 30.023771278385368" fill="#fff917" stroke="none" /><path d="M 103.59715602781102 79.31037775812273 l 10.791468083433088 -62.06886672563182 a84.0,84.0 0 0,0 1.4224195155883965,0.2599380745970459 l -11.858282720124386 61.87391316968404" fill="#4dd2ff" stroke="none" /><path d="M 105.01212808612495 79.60689891045804 l 7.161709501655634 -29.13921259225288 a51.006395876256335,51.006395876256335 0 0,0 0.8508136712221613,0.2168913489511574 l -7.66223206156282 29.01161824713285" fill="#fff116" stroke="none" /><path d="M 105.36241919743992 79.69619591428918 l 7.633528605341631 -28.90293794254644 a50.893989039257704,50.893989039257704 0 0,0 0.8450876858959279,0.23099438792763566 l -8.12991418046127 28.767257013792513" fill="#ffef16" stroke="none" /><path d="M 105.71112130821622 79.79150937346287 l 9.867723521204091 -34.91640039174655 a57.28397695688392,57.28397695688392 0 0,0 0.9465762081783098,0.27633155199594395 l -10.467289947105828 34.741370510831906" fill="#aaff21" stroke="none" /><path d="M 107.08798089147638 80.2323363322302 l 10.292452719945443 -28.70461232887508 a51.49408716363419,51.49408716363419 0 0,0 0.8317954516243913,0.30635728464384465 l -10.78503049734241 28.523191776424913" fill="#fff917" stroke="none" /><path d="M 107.76421540070413 80.48803036053334 l 6.135928709847376 -15.419981095013938 a37.595946435889594,37.595946435889594 0 0,0 0.5992366528658677,0.24444367664028502 l -6.400449232301631 15.312076532190073" fill="#ff0000" stroke="none" /><line stroke="#e1ed5e" stroke-width="0.3" x1="143.23703022742887" x2="145.7803849466894" y1="26.81831364943548" y2="22.513508569990506" /><path d="M 143.74570117128098 25.957352633546492 a86.0,86.0 0 0,1 28.547481713284135,27.462654790039103" fill="none" id="id14" stroke="none" /><text fill="#e1ed5e" style="font-size:6.75px; font-family:Arial;" text-anchor="middle"><textPath startOffset="19.985693538727396" xlink:href="#id14">February</textPath></text><path d="M 110.99172775467656 82.1063720568725 l 10.305927808348823 -16.777202085710837 a40.68976022748062,40.68976022748062 0 0,0 0.5936458680126134,0.37174098808832196 l -10.5931928287337 16.59731675629957" fill="#ff3b05" stroke="none" /><path d="M 111.90073688211348 82.69761687909136 l 16.9917665411913 -24.704189119465426 a50.98361369549478,50.98361369549478 0 0,0 0.718793352701548,0.5035606786244675 l -17.414491033476498 24.408043598077025" fill="#fff116" stroke="none" /><line stroke="#e1ed5e" stroke-width="0.3" x1="172.23445277983987" x2="176.4835382374775" y1="55.19839476539836" y2="52.563006222186495" /><path d="M 173.08426987136738 54.67131705675599 a86.0,86.0 0 0,1 12.851231095245387,41.99856678651699" fill="none" id="id15" stroke="none" /><text fill="#e1ed5e" style="font-size:6.75px; font-family:Arial;" text-anchor="middle"><textPath startOffset="22.20632615414155" xlink:href="#id15">March</textPath></text><line stroke="#e1ed5e" stroke-width="0.3" x1="184.98032266829074" x2="189.97916517819016" y1="98.17113171792111" y2="98.06355123074" /><path d="M 185.9800911702706 98.14961562048488 a86.0,86.0 0 0,1 -9.607161424134198,41.387399972396054" fill="none" id="id16" stroke="none" /><text fill="#e1ed5e" style="font-size:6.75px; font-family:Arial;" text-anchor="middle"><textPath startOffset="21.466115282336823" xlink:href="#id16">April</textPath></text><line stroke="#e1ed5e" stroke-width="0.3" x1="174.80103733775053" x2="179.2010983576182" y1="140.37084112569926" y2="142.7455964860345" /><path d="M 175.68104954172406 140.8457921977663 a86.0,86.0 0 0,1 -30.038265399797805,32.042727171017184" fill="none" id="id17" stroke="none" /><text fill="#e1ed5e" style="font-size:6.75px; font-family:Arial;" text-anchor="middle"><textPath startOffset="22.206326154141568" xlink:href="#id17">May</textPath></text><line stroke="#e1ed5e" stroke-width="0.3" x1="143.8653032363475" x2="146.44561519142675" y1="172.8068346515853" y2="177.08958963109032" /><path d="M 144.38136562736335 173.6633856474863 a86.0,86.0 0 0,1 -40.68145358897372,12.25698825130547" fill="none" id="id18" stroke="none" /><text fill="#e1ed5e" style="font-size:6.75px; font-family:Arial;" text-anchor="middle"><textPath startOffset="21.466115282336833" xlink:href="#id18">June</textPath></text><line stroke="#e1ed5e" stroke-width="0.3" x1="102.19456741930631" x2="102.32365962044197" y1="184.97166512339345" y2="189.96999836594603" /><path d="M 102.22038585953345 185.97133177190398 a86.0,86.0 0 0,1 -42.740103519485714,-10.115201625700543" fill="none" id="id19" stroke="none" /><text fill="#e1ed5e" style="font-size:6.75px; font-family:Arial;" text-anchor="middle"><textPath startOffset="22.20632615414155" xlink:href="#id19">July</textPath></text><line stroke="#e1ed5e" stroke-width="0.3" x1="58.666819895761336" x2="56.23545636021788" y1="174.27360380694188" y2="178.64263932499728" /><path d="M 58.180547188652646 175.14741091055294 a86.0,86.0 0 0,1 -31.652253787137756,-30.449443065178592" fill="none" id="id20" stroke="none" /><text fill="#e1ed5e" style="font-size:6.75px; font-family:Arial;" text-anchor="middle"><textPath startOffset="22.20632615414155" xlink:href="#id20">August</textPath></text><line stroke="#e1ed5e" stroke-width="0.3" x1="26.63291911575756" x2="22.317208475507996" y1="142.92168965132927" y2="145.44649492493687" /><path d="M 25.769776987707644 143.4266507060508 a86.0,86.0 0 0,1 -11.730757126820373,-40.83630448921669" fill="none" id="id21" stroke="none" /><text fill="#e1ed5e" style="font-size:6.75px; font-family:Arial;" text-anchor="middle"><textPath startOffset="21.46611528233685" xlink:href="#id21">September</textPath></text><line stroke="#e1ed5e" stroke-width="0.3" x1="15.007084014347285" x2="10.007500721073583" y1="101.09737516637583" y2="101.16192664675087" /><path d="M 14.007167355692545 101.11028546245083 a86.0,86.0 0 0,1 10.666146001902534,-42.60595125391555" fill="none" id="id22" stroke="none" /><text fill="#e1ed5e" style="font-size:6.75px; font-family:Arial;" text-anchor="middle"><textPath startOffset="22.20632615414155" xlink:href="#id22">October</textPath></text><line stroke="#e1ed5e" stroke-width="0.3" x1="26.266209847984243" x2="21.928928074336255" y1="57.711370442889674" y2="55.22380399835377" /><path d="M 25.398753493254645 57.213857153982495 a86.0,86.0 0 0,1 29.58750427330803,-30.492523968695096" fill="none" id="id23" stroke="none" /><text fill="#e1ed5e" style="font-size:6.75px; font-family:Arial;" text-anchor="middle"><textPath startOffset="21.46611528233685" xlink:href="#id23">November</textPath></text><line stroke="#e1ed5e" stroke-width="0.3" x1="56.762969772571076" x2="54.21961505331055" y1="26.818313649435495" y2="22.513508569990535" /><path d="M 56.25429882871897 25.957352633546506 a86.0,86.0 0 0,1 42.265352541879196,-11.944610805530505" fill="none" id="id24" stroke="none" /><text fill="#e1ed5e" style="font-size:6.75px; font-family:Arial;" text-anchor="middle"><textPath startOffset="22.20632615414155" xlink:href="#id24">December</textPath></text></svg>