<?xml version="1.0" encoding="utf-8" ?>
<svg baseProfile="full" height="200mm" version="1.1" viewBox="0,0,200,200" width="200mm" xmlns="http://www.w3.org/2000/svg" xmlns:ev="http://www.w3.org/2001/xml-events" xmlns:xlink="http://www.w3.org/1999/xlink"><defs /><rect fill="#1a1a1a" height="200" width="200" x="0" y="0" /><text alignment-baseline="middle" fill="#e1ed5e" style="dominant-baseline: central; font-size:9.0px; font-family:Arial;" text-anchor="middle" x="100.0" y="100.0">2024</text><line stroke="#e1ed5e" stroke-width="0.3" x1="100.0" x2="100.0" y1="15.0" y2="10.0" /><path d="M 100.0 14.0 a86.0,86.0 0 0,1 42.35913384403234,11.155469271406648" fill="none" id="id1" stroke="none" /><text fill="#e1ed5e" style="font-size:6.75px; font-family:Arial;" text-anchor="middle"><textPath startOffset="22.145653131862478" xlink:href="#id1">January</textPath></text><line stroke="#e1ed5e" stroke-width="0.3" x1="143.13028292997686" x2="145.6673583964461" y1="26.7553504044142" y2="22.446841604673864" /><path d="M 143.63769802327073 25.89364864446614 a86.0,86.0 0 0,1 29.32050498858742,28.57503671076993" fill="none" id="id2" stroke="none" /><text fill="#e1ed5e" style="font-size:6.75px; font-family:Arial;" text-anchor="middle"><textPath startOffset="20.669276256404974" xlink:href="#id2">February</textPath></text><line stroke="#e1ed5e" stroke-width="0.3" x1="172.87174338648825" x2="177.1583165268699" y1="56.24261187166439" y2="53.66864786411523" /><path d="M 173.72905801456457 55.72781907015455 a86.0,86.0 0 0,1 12.242430191666344,42.057860355516425" fill="none" id="id3" stroke="none" /><text fill="#e1ed5e" style="font-size:6.75px; font-family:Arial;" text-anchor="middle"><textPath startOffset="22.145653131862474" xlink:href="#id3">March</textPath></text><line stroke="#e1ed5e" stroke-width="0.3" x1="184.99686870605535" x2="189.99668451229388" y1="99.2704041080226" y2="99.22748670261217" /><path d="M 185.99683186730306 99.26182062694052 a86.0,86.0 0 0,1 -10.086455211305974,41.156179273409016" fill="none" id="id4" stroke="none" /><text fill="#e1ed5e" style="font-size:6.75px; font-family:Arial;" text-anchor="middle"><textPath startOffset="21.40746469413373" xlink:href="#id4">April</textPath></text><line stroke="#e1ed5e" stroke-width="0.3" x1="174.33088141563837" x2="178.70328620479359" y1="141.23008692659167" y2="143.65538615756765" /><path d="M 175.20536237346943 141.71514677278685 a86.0,86.0 0 0,1 -30.301960400862466,31.631185727798858" fill="none" id="id5" stroke="none" /><text fill="#e1ed5e" style="font-size:6.75px; font-family:Arial;" text-anchor="middle"><textPath startOffset="22.145653131862474" xlink:href="#id5">May</textPath></text><path d="M 118.18653347947321 110.5 l 2.90109666601271 1.6749489410675633 a24.349897882135128,24.349897882135128 0 0,0 -0.2121064989665744,0.3602032061550786 l -2.8719164569163707 -1.7245033155161913" fill="#ff1f03" stroke="none" /><path d="M 118.00360718960297 110.81064883170644 l 9.710847778050502 5.831085075400152 a32.32705247295265,32.32705247295265 0 0,0 -0.2897612804828963,0.47330327526318056 l -9.609318533112202 -5.996925466787889" fill="#ff8e0d" stroke="none" /><path d="M 117.21940702142032 112.02048342749411 l 3.900575561284874 2.7229046757410336 a25.7569632731886,25.7569632731886 0 0,0 -0.25620193978511535,0.3603801133557012 l -3.853258522969798 -2.789462015806239" fill="#ff3404" stroke="none" /><path d="M 116.57777611688842 112.89097897827486 l 2.6547214845390807 2.064327483316938 a24.362884791195057,24.362884791195057 0 0,0 -0.259561674962023,0.32794769710357796 l -2.6188933789354962 -2.109595124335199" fill="#ff2003" stroke="none" /><path d="M 115.89218393027572 113.72728997021213 l 4.1856389168319525 3.6154552057817737 a26.530921215052036,26.530921215052036 0 0,0 -0.3006697958175631,0.3421070344472371 l -4.122958057055804 -3.686774518040304" fill="#ff3e05" stroke="none" /><path d="M 115.6541949942343 113.99807769240083 l 3.5772408913346334 3.1987908633934 a25.798845213420172,25.798845213420172 0 0,0 -0.29804091259048554,0.3275991720201418 l -3.521802277902268 -3.2597276109712134" fill="#ff3404" stroke="none" /><path d="M 114.91283532996324 114.78537596483092 l 4.4452236009859 4.407230465172584 a27.259687950362014,27.259687950362014 0 0,0 -0.33231906523945304,0.3294787484157504 l -4.368912615616481 -4.482889223816996" fill="#ff4906" stroke="none" /><path d="M 114.65682725009322 115.03919595460226 l 43.97048175027964 45.117587863806776 a84.0,84.0 0 0,0 -1.0413100565387516,0.9975514787776794 l -43.18949920787558 -45.86575147289004" fill="#4dd2ff" stroke="none" /><path d="M 114.13192950727249 115.5334660781643 l 2.5345670880301223 2.7859332205476184 a24.7663582189001,24.7663582189001 0 0,0 -0.3169326957923206,0.28340317088147676 l -2.486369365414424 -2.8290319213124824" fill="#ff2503" stroke="none" /><path d="M 113.31354834802062 116.24036423190432 l 3.0039822810377506 3.6643699421794658 a25.738303136982385,25.738303136982385 0 0,0 -0.34409565609860915,0.277179103299579 l -2.940635854583889 -3.715397339272448" fill="#ff3304" stroke="none" /><path d="M 113.03279911837588 116.46651593811092 l 2.4739284118409945 3.125727731496083 a24.986288453982947,24.986288453982947 0 0,0 -0.3386118673561478,0.2633066361317116 l -2.419906599849616 -3.167735419248588" fill="#ff2903" stroke="none" /><path d="M 111.8722381534696 117.32195027204791 l 2.2638256991973646 3.302989350379634 a25.004328338818848,25.004328338818848 0 0,0 -0.3561374961800956,0.2396252013414312 l -2.2067919149202657 -3.3413642257781864" fill="#ff2904" stroke="none" /><path d="M 110.96478420261333 117.91015095944535 l 2.543136208578734 4.154021872607471 a25.870671359626463,25.870671359626463 0 0,0 -0.38075128967277266,0.22863020957537805 l -2.4714521623485246 -4.197066082718773" fill="#ff3505" stroke="none" /><line stroke="#e1ed5e" stroke-width="0.3" x1="143.1302829299769" x2="145.66735839644613" y1="173.24464959558577" y2="177.55315839532614" /><path d="M 143.63769802327073 174.10635135553383 a86.0,86.0 0 0,1 -40.68552437913181,11.842963189579606" fill="none" id="id6" stroke="none" /><text fill="#e1ed5e" style="font-size:6.75px; font-family:Arial;" text-anchor="middle"><textPath startOffset="21.407464694133747" xlink:href="#id6">June</textPath></text><path d="M 110.02825361518725 118.45085714620011 l 2.333562243574742 4.293491693584358 a25.88667409057689,25.88667409057689 0 0,0 -0.3922585341766671,0.20885557539927369 l -2.259514893611521 -4.332917736706201" fill="#ff3505" stroke="none" /><path d="M 109.06512990194946 118.94263497670748 l 2.6668023614543785 5.572591262833231 a27.1778319997928,27.1778319997928 0 0,0 -0.4225651847826896,0.19778184304529894 l -2.570748462800183 -5.617549337449064" fill="#ff4806" stroke="none" /><path d="M 108.4095320186766 119.2426549942271 l 2.797727081879414 6.401747075229452 a27.98638980016792,27.98638980016792 0 0,0 -0.44187167763541374,0.18860874386844048 l -2.687420329073569 -6.448830468757297" fill="#ff5307" stroke="none" /><path d="M 106.38641147887787 120.00534299687104 l 2.120575104884812 6.642671313014161 a27.972942058284904,27.972942058284904 0 0,0 -0.4587021249480815,0.14210709085070775 l -2.0062323470651062 -6.6780949916715135" fill="#ff5307" stroke="none" /><path d="M 104.29559338865022 120.5559693870025 l 1.0173550048238535 4.8684119847396055 a25.973574816869288,25.973574816869288 0 0,0 -0.4372261895756133,0.08745748314872069 l -0.9336323297172816 -4.885158864551188" fill="#ff3705" stroke="none" /><path d="M 101.44090949804482 120.95050786540614 l 0.3760509675274717 5.467698536006764 a26.48061507595898,26.48061507595898 0 0,0 -0.45377137590904904,0.0272977591609601 l -0.28213523948595753 -5.473348272992416" fill="#ff3e05" stroke="none" /><line stroke="#e1ed5e" stroke-width="0.3" x1="101.45913802915013" x2="101.54496967792366" y1="184.9874750549273" y2="189.98673829345242" /><path d="M 101.47630435890484 185.9873277026323 a86.0,86.0 0 0,1 -42.54439059252881,-10.42667462771756" fill="none" id="id7" stroke="none" /><text fill="#e1ed5e" style="font-size:6.75px; font-family:Arial;" text-anchor="middle"><textPath startOffset="22.145653131862474" xlink:href="#id7">July</textPath></text><path d="M 99.27912038922189 120.98762331915562 l -0.183656521706116 5.3469592426310815 a26.350112415671575,26.350112415671575 0 0,0 -0.45193484273318596,-0.019408026702910693 l 0.27541712504014065 -5.343018647502342" fill="#ff3c05" stroke="none" /><path d="M 98.91894614982273 120.97215588758144 l -0.14752640885741586 2.861972919836942 a23.86577267681691,23.86577267681691 0 0,0 -0.4089634804036052,-0.02460222743517135 l 0.1966342413934674 -2.859018714577079" fill="#ff1802" stroke="none" /><path d="M 96.76829788921471 120.74984581791261 l -0.8017912833407664 5.1480752053054974 a26.21013892151855,26.21013892151855 0 0,0 -0.44397790773755536,-0.07305639576480513 l 0.8900466941313854 -5.133552811045024" fill="#ff3a05" stroke="none" /><path d="M 96.05791012581884 120.62667999033965 l -0.7779664571349196 4.0706492410636494 a25.144323473403002,25.144323473403002 0 0,0 -0.4232669865140185,-0.08466525158611908 l 0.8477299291798962 -4.056694592814669" fill="#ff2b04" stroke="none" /><path d="M 95.35216902796893 120.47920084513623 l -1.3455359969901515 5.928679870791501 a27.079449985773763,27.079449985773763 0 0,0 -0.45244325211508873,-0.10677537556005609 l 1.4471114028451282 -5.904708351585218" fill="#ff4606" stroke="none" /><path d="M 93.27111125876986 119.89276391827306 l -1.076091602180868 3.181273612900729 a24.35834407653871,24.35834407653871 0 0,0 -0.3949464552667983,-0.13738287868851595 l 1.130543829492688 -3.1623323016436222" fill="#ff2003" stroke="none" /><path d="M 92.59220618246901 119.65005319985036 l -2.2103084152487282 5.863105671884174 a27.265897494389748,27.265897494389748 0 0,0 -0.4365500488391449,-0.16886693705414524 l 2.310630726581401 -5.824298846691988" fill="#ff4906" stroke="none" /><path d="M 91.92203290615298 119.3841803445677 l -1.3114107181068562 3.146908321147433 a24.409227192968004,24.409227192968004 0 0,0 -0.38539255139925255,-0.16450116333466674 l 1.36523834467654 -3.123932508153362" fill="#ff2003" stroke="none" /><path d="M 90.28995756902619 118.62028667847754 l -3.208780685568271 6.153260058169569 a27.939660138042854,27.939660138042854 0 0,0 -0.4233672542403623,-0.22541921662756514 l 3.3139367555951953 -6.097270373819431" fill="#ff5207" stroke="none" /><line stroke="#e1ed5e" stroke-width="0.3" x1="58.13341422392154" x2="55.67067388415222" y1="173.97424548756322" y2="178.32567169271397" /><path d="M 57.64086615596768 174.84453072859336 a86.0,86.0 0 0,1 -31.369924170532247,-30.572349798747897" fill="none" id="id8" stroke="none" /><text fill="#e1ed5e" style="font-size:6.75px; font-family:Arial;" text-anchor="middle"><textPath startOffset="22.145653131862474" xlink:href="#id8">August</textPath></text><path d="M 88.1277618465304 117.32195027204791 l -1.9919749480769873 2.906350980136879 a24.523469910969713,24.523469910969713 0 0,0 -0.3452027660540528,-0.24097834050359673 l 2.0415728053048054 -2.871727823828153" fill="#ff2203" stroke="none" /><path d="M 87.2517909369889 116.68781488649013 l -2.475808927295684 3.240913360364309 a25.0783758107689,25.0783758107689 0 0,0 -0.33985982668787007,-0.26427705685627123 l 2.5310786986187828 -3.1979352518872446" fill="#ff2a04" stroke="none" /><path d="M 85.60350026404147 115.28858382429668 l -3.890759426767448 4.1318516811229715 a26.675403706502163,26.675403706502163 0 0,0 -0.3306829302596612,-0.3167867668382449 l 3.961114842892424 -4.064452783979144" fill="#ff4006" stroke="none" /><path d="M 85.08716467003676 114.78537596483092 l -2.3428120481643147 2.322788133886699 a24.299107910928154,24.299107910928154 0 0,0 -0.291141727173824,-0.298737060266618 l 2.3823405764889483 -2.282228381552344" fill="#ff1f03" stroke="none" /><path d="M 84.3458050057657 113.99807769240083 l -4.645830162321857 4.154329978758607 a27.232350717791164,27.232350717791164 0 0,0 -0.3086189606301704,-0.3511517247959274 l 4.716460186910621 -4.0739659761513805" fill="#ff4806" stroke="none" /><path d="M 83.8745106332314 113.45245675266167 l -3.1180550476637583 2.6011924182317485 a25.060599620367388,25.060599620367388 0 0,0 -0.27274665500105477,-0.3327065711155231 l 3.1622485219034426 -2.54728356541773" fill="#ff2a04" stroke="none" /><path d="M 83.4222238831116 112.89097897827486 l -0.9374694730766215 0.7289819324977969 a22.187545228973946,22.187545228973946 0 0,0 -0.23122382860586152,-0.3026794140296829 l 0.9498452790367782 -0.7127816052272437" fill="#ff0000" stroke="none" /><path d="M 82.78059297857968 112.02048342749411 l -6.313693434988464 4.407448363764688 a28.69989128950977,28.69989128950977 0 0,0 -0.2785396379565023,-0.40639765603646705 l 6.388422809760291 -4.29841597265817" fill="#ff5d08" stroke="none" /><path d="M 81.99639281039703 110.81064883170644 l -2.6394553109512673 1.584917076515373 a24.078747550212405,24.078747550212405 0 0,0 -0.20974456924201162,-0.3561921331156103 l 2.6662735903230486 -1.539373775106204" fill="#ff1b02" stroke="none" /><line stroke="#e1ed5e" stroke-width="0.3" x1="26.387840678322732" x2="22.057713659400548" y1="142.50000000000003" y2="145.00000000000006" /><path d="M 25.521815274538298 143.00000000000003 a86.0,86.0 0 0,1 -11.493303480769221,-40.785679425670985" fill="none" id="id9" stroke="none" /><text fill="#e1ed5e" style="font-size:6.75px; font-family:Arial;" text-anchor="middle"><textPath startOffset="21.40746469413373" xlink:href="#id9">September</textPath></text><path d="M 81.29705330413844 109.54985784667822 l -2.988224777713671 1.5258088634451206 a24.355231737139718,24.355231737139718 0 0,0 -0.1869323031019256,-0.3739898271893859 l 3.0139769940273338 -1.474287180091982" fill="#ff1f03" stroke="none" /><path d="M 81.1358732173502 109.22738970284198 l -4.305598973481417 2.1060842142457585 a25.793096414421413,25.793096414421413 0 0,0 -0.1911400382630378,-0.39940916604758187 l 4.341118269704367 -2.031862546133072" fill="#ff3404" stroke="none" /><path d="M 80.16572619554312 106.89939002012753 l -3.1323302879852846 1.089587072444906 a24.316427750075228,24.316427750075228 0 0,0 -0.13375723335313947,-0.39542949330574856 l 3.1505729429107916 -1.0356559046649956" fill="#ff1f03" stroke="none" /><path d="M 79.83685265289637 105.86919833188381 l -4.2976289726473755 1.250977159621897 a25.475998060816583,25.475998060816583 0 0,0 -0.11862292887104035,-0.4209509265602858 l 4.318470393592992 -1.1770183091586155" fill="#ff3004" stroke="none" /><path d="M 79.73907114497094 105.5222062557868 l -3.3004078576813987 0.899540837872904 a24.420798992347578,24.420798992347578 0 0,0 -0.10676601117384257,-0.4054079346440658 l 3.315363349659974 -0.8427523988560355" fill="#ff2003" stroke="none" /><path d="M 79.64726062577567 105.17358676015961 l -6.034630586477147 1.5339794968431477 a27.226544741024565,27.226544741024565 0 0,0 -0.11125605469724373,-0.4539626693865109 l 6.060074167690684 -1.4301610028485372" fill="#ff4806" stroke="none" /><path d="M 79.407916724674 104.11899336999214 l -3.275026785361605 0.6550970795468269 a24.33990308668781,24.33990308668781 0 0,0 -0.07843673749376846,-0.410414154777803 l 3.2857898151375307 -0.5987803597357094" fill="#ff1f03" stroke="none" /><path d="M 79.2786578344484 103.40968896794605 l -12.65237313453843 2.081943184495656 a33.8225205540509,33.8225205540509 0 0,0 -0.08935347487912004,-0.5737134065818749 l 12.686248101555817 -1.864441595982331" fill="#ffa20e" stroke="none" /><path d="M 79.13060592940153 102.33845913500099 l -3.401987498345269 0.38119979505645973 a24.42327799377272,24.42327799377272 0 0,0 -0.04311011823734902,-0.4170512875996999 l 3.408030009064284 -0.3227439851738284" fill="#ff2003" stroke="none" /><path d="M 79.06263194458094 101.62068470465958 l -4.766950334708511 0.36899210420740225 a25.781210167577346,25.781210167577346 0 0,0 -0.03036785790079935,-0.441541989048957 l 4.772582153774376 -0.28710669100410197" fill="#ff3404" stroke="none" /><path d="M 79.01933749520258 100.90099992219065 l -12.836595572051253 0.5512586463352332 a33.84842682882092,33.84842682882092 0 0,0 -0.019946898889092478,-0.5807321971801881 l 12.844167157937193 -0.33082018459092516" fill="#ffa20f" stroke="none" /><line stroke="#e1ed5e" stroke-width="0.3" x1="15.003131293944662" x2="10.003315487706104" y1="100.72959589197737" y2="100.7725132973878" /><path d="M 14.003168132696942 100.73817937305945 a86.0,86.0 0 0,1 10.791469493833604,-42.45332614584628" fill="none" id="id10" stroke="none" /><text fill="#e1ed5e" style="font-size:6.75px; font-family:Arial;" text-anchor="middle"><textPath startOffset="22.145653131862435" xlink:href="#id10">October</textPath></text><path d="M 79.06263194458094 98.37931529534042 l -7.878997246632939 -0.6098842171505886 a28.90256644203507,28.90256644203507 0 0,0 0.042536839212432564,-0.4943425496573789 l 7.867366784722764 0.7450478141836482" fill="#ff6008" stroke="none" /><path d="M 79.17382384314186 97.30363454192245 l -3.3400516081853318 -0.4324365508423692 a24.36792905445555,24.36792905445555 0 0,0 0.057270996144335715,-0.4143843985855888 l 3.332136095485788 0.4897092576280249" fill="#ff2003" stroke="none" /><path d="M 79.22317932658666 96.9465228501225 l -4.808449630110163 -0.7066765075691497 a25.86010077381701,25.86010077381701 0 0,0 0.06831808590882862,-0.43865111962272735 l 4.795610052063067 0.7891158091233269" fill="#ff3505" stroke="none" /><path d="M 79.56144815229197 95.17655741523228 l -6.149308132544582 -1.4512199755825712 a27.31822996783979,27.31822996783979 0 0,0 0.11163070879699619,-0.4554913859645272 l 6.123489897231288 1.5565671861552162" fill="#ff4a06" stroke="none" /><path d="M 80.05021161711548 93.44210830539832 l -1.1669217229651259 -0.38359034834918937 a22.22835168533875,22.22835168533875 0 0,0 0.12227136543205315,-0.36147356570203004 l 1.1601649359607076 0.40356558852538105" fill="#ff0100" stroke="none" /><path d="M 80.5471966667186 92.08871423366112 l -3.2021664431478656 -1.3022932154864046 a24.45685370658409,24.45685370658409 0 0,0 0.16150159681216397,-0.38754503975724347 l 3.179339001799223 1.357070764684912" fill="#ff2103" stroke="none" /><path d="M 80.68587082218212 91.75594674310238 l -5.833536595952303 -2.489989889284019 a27.34272803019737,27.34272803019737 0 0,0 0.18796969051357976,-0.43011143734175183 l 5.789933023421746 2.5897633964016373" fill="#ff4a06" stroke="none" /><path d="M 81.29705330413844 90.45014215332179 l -4.364663541477864 -2.228628303737601 a25.90072157406707,25.90072157406707 0 0,0 0.2055924425773178,-0.39425061702167696 l 4.325763029925605 2.303225163863764" fill="#ff3605" stroke="none" /><path d="M 81.63589988554816 89.8137432299009 l -5.546776543434648 -3.0767034467060044 a27.34293576522492,27.34293576522492 0 0,0 0.2311996711556118,-0.40850766580735043 l 5.493143507257667 3.1714678826124603" fill="#ff4a06" stroke="none" /><line stroke="#e1ed5e" stroke-width="0.3" x1="26.387840678322718" x2="22.05771365940052" y1="57.49999999999999" y2="54.99999999999999" /><path d="M 25.521815274538284 56.99999999999999 a86.0,86.0 0 0,1 29.574782752854787,-30.34633250058573" fill="none" id="id11" stroke="none" /><text fill="#e1ed5e" style="font-size:6.75px; font-family:Arial;" text-anchor="middle"><textPath startOffset="21.40746469413373" xlink:href="#id11">November</textPath></text><path d="M 81.81346652052679 89.5 l -2.6670964656170644 -1.539848862378712 a24.079697724757423,24.079697724757423 0 0,0 0.20975284599934613,-0.35620618885903843 l 2.6402699094879387 1.5854062195313232" fill="#ff1c02" stroke="none" /><path d="M 81.99639281039701 89.18935116829357 l -11.038250573302141 -6.628152314568638 a33.875378783714545,33.875378783714545 0 0,0 0.3036395953953896,-0.4959724596768735 l 10.92284301345136 6.816661890370055" fill="#ffa20f" stroke="none" /><path d="M 82.576782715395 88.27688183743585 l -5.198781193423133 -3.497972001168059 a27.266030164150642,27.266030164150642 0 0,0 0.26462365636938795,-0.38609382301671813 l 5.137967800238432 3.586700559254812" fill="#ff4906" stroke="none" /><path d="M 82.78059297857968 87.97951657250589 l -2.755744584697085 -1.9237237420284683 a24.360779857671627,24.360779857671627 0 0,0 0.24231424287156061,-0.34084532844285403 l 2.7223152432955517 1.9707462971808427" fill="#ff2003" stroke="none" /><path d="M 83.2033758604659 87.39550010848427 l -6.1655522926016655 -4.626745383932122 a28.708489341015063,28.708489341015063 0 0,0 0.2991807678774337,-0.3916372289832287 l 6.085219547369925 4.731903526156235" fill="#ff5d08" stroke="none" /><path d="M 83.64595745247003 86.82634096563983 l -4.8541660821039105 -3.9101725873552353 a27.233167574801143,27.233167574801143 0 0,0 0.29639176530610517,-0.3615497610465308 l 4.786327497559176 3.992924630100259" fill="#ff4806" stroke="none" /><path d="M 84.10781606972428 86.27271002978789 l -4.741785074980981 -4.095841011296339 a27.265815133494556,27.265815133494556 0 0,0 0.3089982063772417,-0.35158323683891296 l 4.670775804645146 4.176636525946552" fill="#ff4906" stroke="none" /><path d="M 84.58840730492382 85.73525988315684 l -5.657813572987907 -5.236787776905455 a28.7093969055324,28.7093969055324 0 0,0 0.3378742839120128,-0.35881078084283824 l 5.567083455339622 5.333140017692805" fill="#ff5d08" stroke="none" /><path d="M 84.83555147118756 85.47280134310135 l -2.9359666861953344 -2.812589671121798 a25.065779266087848,25.065779266087848 0 0,0 0.3003276620375359,-0.3081626386734792 l 2.887252223006996 2.8625750018630076" fill="#ff2a04" stroke="none" /><path d="M 85.34317274990677 84.96080404539775 l -5.858694106413426 -6.0115362759607045 a29.394216165295894,29.394216165295894 0 0,0 0.36438682020235624,-0.3490743309905126 l 5.7546348003457695 6.111222737256785" fill="#ff6609" stroke="none" /><path d="M 85.86807049272753 84.46653392183569 l -4.934636723000343 -5.424030179696521 a28.33285367222354,28.33285367222354 0 0,0 0.36257279388675023,-0.3242148280283245 l 4.840798902290201 5.507940537608246" fill="#ff5808" stroke="none" /><path d="M 86.13680546590413 84.22622945171909 l -2.6862631347521297 -3.056474336825667 a25.069157775363625,25.069157775363625 0 0,0 0.32568479362771113,-0.2813187678063028 l 2.63339886136157 3.1021372370966804" fill="#ff2a04" stroke="none" /><path d="M 86.68645165197937 83.75963576809568 l -3.960649582313103 -4.831348497808063 a27.24729328758857,27.24729328758857 0 0,0 0.36426936192358,-0.2934296126904678 l 3.877129450034278 4.89862640429193" fill="#ff4906" stroke="none" /><path d="M 86.96720088162412 83.53348406188908 l -3.8889245943985453 -4.9135291838792154 a27.266299030667994,27.266299030667994 0 0,0 0.36951035955856093,-0.28733349055616647 l 3.8040042902047397 4.979563726056187" fill="#ff4906" stroke="none" /><path d="M 87.83215693770416 82.88440491214696 l -4.2365785685849024 -5.959278317984292 a28.3117437071461,28.3117437071461 0 0,0 0.39852811510774494,-0.2782035755983895 l 4.133655362303392 6.031126709387808" fill="#ff5708" stroke="none" /><path d="M 88.12776184653039 82.6780497279521 l -2.8212161899503916 -4.1162387342049245 a25.990258721490015,25.990258721490015 0 0,0 0.37018013604367905,-0.249073716144758 l 2.750139765809723 4.164062124406792" fill="#ff3705" stroke="none" /><path d="M 88.72937992617638 82.28071324371311 l -3.934040220168268 -6.184964652816887 a28.33010642559137,28.33010642559137 0 0,0 0.41258870381672835,-0.257485866110237 l 3.827287387561841 6.25158631576866" fill="#ff5808" stroke="none" /><line stroke="#e1ed5e" stroke-width="0.3" x1="56.869717070023135" x2="54.33264160355391" y1="26.7553504044142" y2="22.446841604673864" /><path d="M 56.362301976729285 25.89364864446614 a86.0,86.0 0 0,1 42.16139366436587,-11.88097634709845" fill="none" id="id12" stroke="none" /><text fill="#e1ed5e" style="font-size:6.75px; font-family:Arial;" text-anchor="middle"><textPath startOffset="22.145653131862474" xlink:href="#id12">December</textPath></text><path d="M 89.97174638481275 81.54914285379989 l -3.508379720682763 -6.455023529012968 a28.34683993459835,28.34683993459835 0 0,0 0.4295372144903486,-0.22870437293628654 l 3.397053690405852 6.51429836967183" fill="#ff5808" stroke="none" /><path d="M 90.61103034731259 81.2157712731953 l -2.4674823431084474 -4.936617587110253 a26.51893670147776,26.51893670147776 0 0,0 0.4089469452972357,-0.20003644353764025 l 2.3823751485491584 4.978247780745107" fill="#ff3e05" stroke="none" /><path d="M 90.93487009805054 81.0573650232925 l -3.3242542465338105 -6.946412841620509 a28.70086473467937,28.70086473467937 0 0,0 0.44624553607236306,-0.2088654431398958 l 3.2045199965899247 7.002454516330947" fill="#ff5d08" stroke="none" /><path d="M 92.592206182469 80.34994680014964 l -1.4422967240729276 -3.8258634157624267 a25.088697924320265,25.088697924320265 0 0,0 0.4042994070696459,-0.14846434240628192 l 1.3764081653491547 3.8500586071774303" fill="#ff2a04" stroke="none" /><path d="M 93.27111125876988 80.10723608172694 l -1.9991829976113469 -5.910229300899041 a27.239194102377635,27.239194102377635 0 0,0 0.4442287916601688,-0.14602682732366534 l 1.897431468303417 5.943677049624735" fill="#ff4806" stroke="none" /><path d="M 93.61358852112211 79.99465700312896 l -1.0190152662849645 -3.192050807953955 a24.350758193824394,24.350758193824394 0 0,0 0.39930531812960357,-0.12370580826726461 l 0.9640693152837447 3.2090732040278613" fill="#ff1f03" stroke="none" /><path d="M 94.30408787586887 79.78721728523814 l -1.8634330883748271 -6.612666645478413 a27.870206913847127,27.870206913847127 0 0,0 0.46160839640166523,-0.1258134211206328 l 1.7496432910384843 6.643680560743186" fill="#ff5107" stroke="none" /><path d="M 94.6519064749342 79.69241777938228 l -0.8526545839813116 -3.237668337105982 a24.348061543741835,24.348061543741835 0 0,0 0.4050992296955298,-0.10297464006038949 l 0.7969500610604036 3.251828209001635" fill="#ff1f03" stroke="none" /><path d="M 95.35216902796891 79.52079915486377 l -1.7027895862955111 -7.5028051029819 a28.693606227805507,28.693606227805507 0 0,0 0.4812841198173727,-0.10489363385685757 l 1.57374304985902 7.530930194972472" fill="#ff5d08" stroke="none" /><path d="M 96.05791012581881 79.37332000966035 l -2.2833168131344004 -11.947278404165765 a33.163510880325134,33.163510880325134 0 0,0 0.5600926391787403,-0.10206753652583721 l 2.0778894404046215 11.984714114622964" fill="#ff990e" stroke="none" /></svg>